<svg xmlns="http://www.w3.org/2000/svg" viewBox="0 0 3051.27 841.89"><defs><style>.cls-1{fill:#f3ba2f;}</style></defs><title>BSCEX logo w</title><g id="Layer_2" data-name="Layer 2"><g id="Layer_1-2" data-name="Layer 1"><path class="cls-1" d="M989.14,633.83V208.06h189.4q31.31,0,56.66,8t43.36,23.16a101.49,101.49,0,0,1,27.71,37.26Q1316,298.53,1316,327a82.78,82.78,0,0,1-4.22,26,101,101,0,0,1-11.27,23.64A93.28,93.28,0,0,1,1284,395.74a66.56,66.56,0,0,1-19.72,12.37,118.24,118.24,0,0,1,52.91,37.25,104.26,104.26,0,0,1,16.27,28.49,91.7,91.7,0,0,1,6,32.87q0,34.46-12.52,58.55t-32.71,39.29a135,135,0,0,1-45.87,22.22,195.33,195.33,0,0,1-52,7.05Zm98.92-255.15h84.53a39.48,39.48,0,0,0,15.34-3.13,42.5,42.5,0,0,0,13.46-8.92,46.42,46.42,0,0,0,9.71-13.93,42.9,42.9,0,0,0,3.75-18.16,44.72,44.72,0,0,0-3.6-18,45.68,45.68,0,0,0-9.54-14.25,43.78,43.78,0,0,0-13.47-9.23,37.91,37.91,0,0,0-15.34-3.29h-84.84Zm98.31,173.44a52.85,52.85,0,0,0,16.74-3,52.07,52.07,0,0,0,16.44-9.07,50.05,50.05,0,0,0,12.52-15.5q5-9.39,5-22.23A47.26,47.26,0,0,0,1205.93,457a55.46,55.46,0,0,0-19.56-3.45h-98.31v98.62Z"/><path class="cls-1" d="M1409.58,516.43q13.14,6.27,31,13.46t37.73,13.46A399.51,399.51,0,0,0,1519,553.84a202,202,0,0,0,40.23,4.23q21.6,0,36.16-3.6t23.64-10a37,37,0,0,0,13-15.34,49,49,0,0,0,3.91-19.88q0-12.21-6.73-20.66t-19.72-15a194.64,194.64,0,0,0-31.93-12.21q-18.94-5.64-43.36-12.52-11.91-3.13-27.08-7.36a323.62,323.62,0,0,1-30.84-10.33,219.84,219.84,0,0,1-30.52-14.72,130.44,130.44,0,0,1-26.61-20.19,91.17,91.17,0,0,1-18.79-26.76q-7-15.18-7-34.6,0-31.94,10.33-57.44a108.69,108.69,0,0,1,31.78-43.36q21.43-17.85,54.47-27.24t78.73-9.39a284.71,284.71,0,0,1,44.77,3.44,359.67,359.67,0,0,1,41.48,9.08q19.88,5.64,38,12.68t34.75,13.93L1701,318.89q-6-2.82-15.5-6.58t-21.44-7.67q-11.91-3.9-25.36-7.82t-27.24-6.89q-13.77-3-27.08-4.85a177.48,177.48,0,0,0-24.88-1.88q-20,0-33,3.44T1506,296a32.66,32.66,0,0,0-10.49,13.47,41.35,41.35,0,0,0-3,15.34,27.73,27.73,0,0,0,7,18.94q7.05,8,19.26,13.77a151.49,151.49,0,0,0,28.8,9.86q16.59,4.08,36,7.51,33.18,8.15,61.36,17.85t48.53,25A107.44,107.44,0,0,1,1725.3,456q11.43,22.86,11.43,56.66,0,32.25-14.09,56.82A124.73,124.73,0,0,1,1684,610.82q-24.59,16.74-58.23,25.2T1553,644.47a365.88,365.88,0,0,1-55.1-3.91,398.35,398.35,0,0,1-47.43-10,336.84,336.84,0,0,1-39.6-13.62q-17.85-7.51-31.62-14.71Z"/><path class="cls-1" d="M2193.49,574a245.52,245.52,0,0,1-31.62,27.08,220.78,220.78,0,0,1-38.2,22.07,236.9,236.9,0,0,1-44,14.87,213.85,213.85,0,0,1-49,5.48,238.06,238.06,0,0,1-62-8,242.39,242.39,0,0,1-55.57-22.39,227,227,0,0,1-83.28-80,220.07,220.07,0,0,1-23.47-53.38,217.27,217.27,0,0,1,0-119,219.9,219.9,0,0,1,23.47-53.38,222.27,222.27,0,0,1,36.32-45.08,233.37,233.37,0,0,1,102.53-57.13,242.36,242.36,0,0,1,62-7.83,218.3,218.3,0,0,1,48.21,5.16,231.14,231.14,0,0,1,43.21,14.25,216.34,216.34,0,0,1,38.19,21.91,269.75,269.75,0,0,1,33.19,28.18l-60.43,64.18a124.26,124.26,0,0,0-45.39-35.69,133.48,133.48,0,0,0-57-12.53,130.35,130.35,0,0,0-52,10.49,132.44,132.44,0,0,0-42.57,29A136.29,136.29,0,0,0,1907.5,366a147.63,147.63,0,0,0,0,109.26,136.07,136.07,0,0,0,28.65,43.67,132.12,132.12,0,0,0,42.57,29,132.74,132.74,0,0,0,81.09,7.2,135.63,135.63,0,0,0,27.7-9.55,134.13,134.13,0,0,0,24.89-15.18,132.68,132.68,0,0,0,21-20.19Z"/><path class="cls-1" d="M2279.26,208.06h299.92v85.47H2378.5v87h172.19v85.15H2378.5v83H2582v85.16H2279.26Z"/><path class="cls-1" d="M2833.38,338.61l85.78-130.55h116.46L2895.37,410.3l155.9,223.53H2934.5L2833.38,481.05l-100.8,152.78H2615.49L2771.4,410.3,2631.15,208.06H2747.6Z"/><polygon class="cls-1" points="213.02 419.95 343.87 289.11 474.79 420.02 550.92 343.89 343.87 136.82 136.88 343.82 213.02 419.95"/><polygon class="cls-1" points="367.06 421.93 497.92 552.78 628.83 421.87 705.01 497.97 704.97 498.01 497.92 705.07 290.92 498.08 290.82 497.97 367.06 421.93"/><path class="cls-1" d="M420.94,841.89A421.05,421.05,0,0,1,257.08,33.09,421.05,421.05,0,0,1,584.81,808.8,418.35,418.35,0,0,1,420.94,841.89Zm0-771.58C227.6,70.31,70.31,227.6,70.31,420.94S227.6,771.58,420.94,771.58,771.58,614.29,771.58,420.94,614.29,70.31,420.94,70.31Z"/></g></g></svg>